# xmcd
#
# Track frame offsets: 
#        187
#        13175
#        25890
#        41387
#        59665
#        75580
#        89150
#        103267
#        117175
#        131325
#
# Disc length: 1932 seconds
#
# Revision: 1
# Processed by: cddbd v1.4PL0 Copyright (c) Steve Scherf et al.
# Submitted via: ExactAudioCopy v0.90b4
#
DISCID=82078a0a
DTITLE=Merle Haggard - I'm Always On A Mountain When I Fall
DYEAR=1900
DGENRE=Country
TTITLE0=I'm Always On A Mountain When I Fall
TTITLE1=It's Been A Great Afternoon
TTITLE2=Love Me When You Can
TTITLE3=There Won't Be Another Now
TTITLE4=Don't You Ever Get Tired (Of Hurting Me)
TTITLE5=Life Of A Rodeo Cowboy
TTITLE6=There Ain't No Good Chain Gang
TTITLE7=The Dream
TTITLE8=The Immigrant
TTITLE9=Mama I've Got To Go To Memphis
EXTD=
EXTT0=
EXTT1=
EXTT2=
EXTT3=
EXTT4=
EXTT5=
EXTT6=
EXTT7=
EXTT8=
EXTT9=
PLAYORDER=
